# xmcd
#
# Track frame offsets: 
#        150
#        22020
#        39920
#        64177
#        81484
#        101648
#        120063
#        139138
#        157211
#        176672
#        198815
#        222641
#        240496
#        262366
#        281868
#
# Disc length: 4033 seconds
#
# Revision: 0
# Processed by: cddbd v1.5.1PL0 Copyright (c) Steve Scherf et al.
# Submitted via: ExactAudioCopy v0.95a5
#
DISCID=e30fbf0f
DTITLE=谭咏麟 - 环球巨星系列 vol.6
DYEAR=2001
DGENRE=Pop
TTITLE0=编织
TTITLE1=爱的根源
TTITLE2=变奏
TTITLE3=半梦半醒
TTITLE4=幻影
TTITLE5=爱在深秋
TTITLE6=珍重
TTITLE7=忘不了你
TTITLE8=吻别
TTITLE9=不见不散
TTITLE10=无边的思忆
TTITLE11=幸运星
TTITLE12=偏爱
TTITLE13=痴心的废墟
TTITLE14=此刻你在何处
EXTD=
EXTT0=
EXTT1=
EXTT2=
EXTT3=
EXTT4=
EXTT5=
EXTT6=
EXTT7=
EXTT8=
EXTT9=
EXTT10=
EXTT11=
EXTT12=
EXTT13=
EXTT14=
PLAYORDER=
